# xmcd
#
# Track frame offsets:
# 150
# 21094
# 36731
# 52031
# 66954
# 83342
# 102112
# 120431
# 140660
# 159977
# 178712
# 197677
# 216187
# 235737
# 250950
# 264036
# 282685
# 307634
# 325937
# 343678
#
# Disc length: 4757 seconds
#
# Revision: 1
# Processed by: cddbd v1.5.1PL2 Copyright (c) Steve Scherf et al.
# Submitted via: Axialis_AX_CDPlayer 2.6
#
DISCID=1b129314
DTITLE=Zezé di Camargo e Luciano - As Vinte Mais
DYEAR=1900
DGENRE=
TTITLE0=Passou da Conta
TTITLE1=Pra Sempre em Mim
TTITLE2=É O Amor
TTITLE3=Cara ou Coroa
TTITLE4=Tarde Demais
TTITLE5=Antes de Voltar pra Casa
TTITLE6=E Minha Vida
TTITLE7=Cada Volta é Um Recomeço
TTITLE8=Serafim e Seus Filhos
TTITLE9=Pare
TTITLE10=Será que Foi Saudade
TTITLE11=Indiferença
TTITLE12=Saudade Bandida
TTITLE13=O Último dos Apaixonados
TTITLE14=Muda de Vida
TTITLE15=Depois que Você Matar Meu Coração
TTITLE16=Preciso Ser Amado
TTITLE17=Dois Corações e Uma História
TTITLE18=Cama de Capim
TTITLE19=Eu te Amo
EXTD=
EXTT0=
EXTT1=
EXTT2=
EXTT3=
EXTT4=
EXTT5=
EXTT6=
EXTT7=
EXTT8=
EXTT9=
EXTT10=
EXTT11=
EXTT12=
EXTT13=
EXTT14=
EXTT15=
EXTT16=
EXTT17=
EXTT18=
EXTT19=
PLAYORDER=
